# xmcd
#
# Track frame offsets:
#	150
#	7929
#	26097
#	47662
#	65792
#	82715
#	100515
#	119855
#	137880
#	164702
#	184810
#	209992
#
# Disc length: 2904 seconds
#
# Revision: 1
# Processed by: cddbd v1.5.1PL0 Copyright (c) Steve Scherf et al.
# Submitted via: audiograbber 1.83.01
#
DISCID=ae0b560c
DTITLE=De Spira - Sul confine
DYEAR=2001
DGENRE=
TTITLE0=Limite
TTITLE1=Riflesso
TTITLE2=Non ancora
TTITLE3=Stai qui
TTITLE4=Una fragile tela
TTITLE5=Fusione
TTITLE6=Vortice
TTITLE7=Come l'acqua
TTITLE8=Solo un sogno
TTITLE9=Fuori dal cielo
TTITLE10=Sul confine
TTITLE11=Ritorna
EXTD=
EXTT0=
EXTT1=
EXTT2=
EXTT3=
EXTT4=
EXTT5=
EXTT6=
EXTT7=
EXTT8=
EXTT9=
EXTT10=
EXTT11=
PLAYORDER=
